# xmcd CD database file
#
# Track frame offsets:
#	150
#	12263
#	26740
#	39231
#	54085
#	72292
#	85934
#	100002
#	112003
#	130740
#	144005
#	158167
#	171826
#	184945
#	197152
#	211333
#	224616
#	238865
#
# Disc length: 3351 seconds
#
# Revision: 1
# Processed by: cddbd v1.5.1PL0 Copyright (c) Steve Scherf et al.
# Submitted via: CDex 1.51
#
DISCID=f70d1512
DTITLE=Various Artist - The Original Sounds of New York City CD2
DYEAR=1900
DGENRE=Jazz
TTITLE0=Miles Davis - Milestones
TTITLE1=Theloeous Monk - Round Midnight
TTITLE2=Erroll Garner - Somebody Loves Me
TTITLE3=Dexter Gordon - I Can't Escape From You
TTITLE4=Claude Thornhill - Robbins' Nest
TTITLE5=Jay Jay Johnson - Yesterdays
TTITLE6=Dizzy Gillespie - Night in Tunisia
TTITLE7=Stan Getz - Don't Worry About Me
TTITLE8=Charlie Parker - Out of Nowhere
TTITLE9=Sarah Vaughan - East Of The Sun
TTITLE10=Lester Young - Sometimes I'm Happy
TTITLE11=Fats Navarro and Tad Dameron - Our Delight
TTITLE12=Bud Powell - I'll Remember April
TTITLE13=Anita O'Day - What Is This Thing Called Love
TTITLE14=Gene Krupa - Let Me Off Uptown
TTITLE15=Illinois Jacquet - Jumpin' Jacquet
TTITLE16=Arnett Cobb - Cobb's Idea
TTITLE17=Lennie Tristano and Billy Bauer - Blue Boy
EXTD=
EXTT0=
EXTT1=
EXTT2=
EXTT3=
EXTT4=
EXTT5=
EXTT6=
EXTT7=
EXTT8=
EXTT9=
EXTT10=
EXTT11=
EXTT12=
EXTT13=
EXTT14=
EXTT15=
EXTT16=
EXTT17=
PLAYORDER=
